<?xml version="1.0" standalone="no"?><svg xmlns="http://www.w3.org/2000/svg" viewBox="0 0 1440 320"><path fill="#1c7db9" fill-opacity="1" d="M0,256L8,213.3C16,171,32,85,48,48C64,11,80,21,96,37.3C112,53,128,75,144,85.3C160,96,176,96,192,90.7C208,85,224,75,240,96C256,117,272,171,288,197.3C304,224,320,224,336,197.3C352,171,368,117,384,128C400,139,416,213,432,234.7C448,256,464,224,480,213.3C496,203,512,213,528,218.7C544,224,560,224,576,224C592,224,608,224,624,234.7C640,245,656,267,672,277.3C688,288,704,288,720,288C736,288,752,288,768,282.7C784,277,800,267,816,261.3C832,256,848,256,864,224C880,192,896,128,912,128C928,128,944,192,960,229.3C976,267,992,277,1008,266.7C1024,256,1040,224,1056,224C1072,224,1088,256,1104,240C1120,224,1136,160,1152,138.7C1168,117,1184,139,1200,176C1216,213,1232,267,1248,266.7C1264,267,1280,213,1296,208C1312,203,1328,245,1344,229.3C1360,213,1376,139,1392,144C1408,149,1424,235,1432,277.3L1440,320L1440,0L1432,0C1424,0,1408,0,1392,0C1376,0,1360,0,1344,0C1328,0,1312,0,1296,0C1280,0,1264,0,1248,0C1232,0,1216,0,1200,0C1184,0,1168,0,1152,0C1136,0,1120,0,1104,0C1088,0,1072,0,1056,0C1040,0,1024,0,1008,0C992,0,976,0,960,0C944,0,928,0,912,0C896,0,880,0,864,0C848,0,832,0,816,0C800,0,784,0,768,0C752,0,736,0,720,0C704,0,688,0,672,0C656,0,640,0,624,0C608,0,592,0,576,0C560,0,544,0,528,0C512,0,496,0,480,0C464,0,448,0,432,0C416,0,400,0,384,0C368,0,352,0,336,0C320,0,304,0,288,0C272,0,256,0,240,0C224,0,208,0,192,0C176,0,160,0,144,0C128,0,112,0,96,0C80,0,64,0,48,0C32,0,16,0,8,0L0,0Z"></path></svg>