<?xml version="1.0" encoding="utf-8"?>
<!-- Generator: Adobe Illustrator 21.1.0, SVG Export Plug-In . SVG Version: 6.00 Build 0)  -->
<svg version="1.0" id="Capa_1" xmlns="http://www.w3.org/2000/svg" xmlns:xlink="http://www.w3.org/1999/xlink" x="0px" y="0px"
	 width="1023.6px" height="809.4px" viewBox="0 0 1023.6 809.4" style="enable-background:new 0 0 1023.6 809.4;"
	 xml:space="preserve">
<g>
	<polygon id="XMLID_554_" style="fill:#D9D9DA;" points="912.7,705.3 0,705.3 66.2,645.7 838.5,645.7 	"/>
	<ellipse id="XMLID_552_" style="fill:#848484;" cx="432.9" cy="688.2" rx="209.7" ry="4"/>
	<ellipse id="XMLID_551_" style="fill:#848484;" cx="725.3" cy="688.2" rx="39" ry="2.4"/>
	<g id="XMLID_546_">
		
			<rect id="XMLID_550_" x="690.9" y="590.5" transform="matrix(0.1697 -0.9855 0.9855 0.1697 19.0441 1213.0238)" style="fill:#9721D6;" width="77" height="9.4"/>
		
			<rect id="XMLID_549_" x="693.2" y="593.3" transform="matrix(0.1697 -0.9855 0.9855 0.1697 20.5945 1215.6761)" style="fill:#B7B7B7;" width="77" height="4.7"/>
		<polygon id="XMLID_548_" style="fill:#F9D6B7;" points="718.2,632.4 720.8,645 727.5,634 728,630.9 725.8,633.7 723.4,630.1 
			720.2,632.7 718.8,629.3 		"/>
		<path id="XMLID_547_" style="fill:#231F20;" d="M720.8,645l2.8-4.7c-0.6-0.1-1.3-0.2-2-0.4s-1.3-0.2-2-0.3L720.8,645z"/>
	</g>
	<g id="XMLID_538_">
		<circle id="XMLID_545_" style="fill:#CECECF;" cx="720.5" cy="662.5" r="0.9"/>
		<rect id="XMLID_544_" x="715.9" y="555.7" style="fill:#231F20;" width="9.4" height="94.4"/>
		<path id="XMLID_543_" style="fill:#231F20;" d="M726.4,592.9h-11.6v-44.6c0-1.3,1.1-2.4,2.4-2.4h6.9c1.3,0,2.4,1.1,2.4,2.4v44.6
			H726.4z"/>
		<rect id="XMLID_542_" x="715.9" y="592.9" style="fill:#B7B7B7;" width="9.4" height="1.3"/>
		<path id="XMLID_541_" style="fill:#231F20;" d="M726.4,552.5v1.3h1.7v31.7c-0.5,0.1-0.9,0.6-0.9,1.1v4.2c0,0.6,0.5,1.2,1.2,1.2
			h1.1v-2v-4.6v-33L726.4,552.5L726.4,552.5z"/>
		<rect id="XMLID_540_" x="715.9" y="650.1" style="fill:#3A3436;" width="9.4" height="3.7"/>
		<polygon id="XMLID_539_" style="fill:#231F20;" points="721.5,662.5 725.2,653.8 715.9,653.8 719.6,662.5 		"/>
	</g>
	<g id="XMLID_530_">
		
			<ellipse id="XMLID_537_" transform="matrix(0.3611 -0.9325 0.9325 0.3611 -22.0857 1071.2347)" style="fill:#FFFFFF;" cx="770.7" cy="551.7" rx="0.9" ry="0.9"/>
		
			<rect id="XMLID_536_" x="702.1" y="602.6" transform="matrix(0.3611 -0.9325 0.9325 0.3611 -87.6028 1086.7107)" style="fill:#43D6CB;" width="94.4" height="9.4"/>
		<path id="XMLID_535_" style="fill:#43D6CB;" d="M740.2,614.5l10.8,4.2l-16,41.6c-0.5,1.2-1.8,1.8-3.1,1.4l-6.4-2.5
			c-1.2-0.5-1.8-1.8-1.4-3.1L740.2,614.5z"/>
		
			<rect id="XMLID_534_" x="745.3" y="611.3" transform="matrix(0.3611 -0.9325 0.9325 0.3611 -97.8838 1089.1526)" style="fill:#B7B7B7;" width="1.3" height="9.4"/>
		<path id="XMLID_533_" style="fill:#43D6CB;" d="M725.7,652.2l0.5-1.3l-1.6-0.6l11.4-29.6c0.5,0.1,1.1-0.2,1.3-0.7l1.5-3.9
			c0.2-0.6-0.1-1.3-0.7-1.5l-1-0.4l-0.7,1.8l-1.7,4.3l-11.9,30.8L725.7,652.2z"/>
		
			<rect id="XMLID_532_" x="765.2" y="556.8" transform="matrix(0.3611 -0.9325 0.9325 0.3611 -33.6078 1074.0176)" style="fill:#FFFFFF;" width="3.7" height="9.4"/>
		<polygon id="XMLID_531_" style="fill:#43D6CB;" points="769.9,551.4 763.3,558.1 772,561.5 771.6,552.1 		"/>
	</g>
	<g id="XMLID_525_">
		
			<rect id="XMLID_529_" x="703.4" y="571.6" transform="matrix(0.9861 -0.1663 0.1663 0.9861 -91.5976 126.2513)" style="fill:#FF508F;" width="9.4" height="77"/>
		
			<rect id="XMLID_528_" x="708" y="571.3" transform="matrix(0.9861 -0.1663 0.1663 0.9861 -91.5178 126.6241)" style="fill:#B7B7B7;" width="4.7" height="77"/>
		<polygon id="XMLID_527_" style="fill:#F9D6B7;" points="709.8,648.9 716.5,659.9 719.1,647.4 718.6,644.3 717.4,647.7 714,645.1 
			711.9,648.6 709.3,645.9 		"/>
		<path id="XMLID_526_" style="fill:#231F20;" d="M716.5,659.9l1.1-5.3c-0.7,0.1-1.3,0.2-2,0.3s-1.3,0.2-2,0.4L716.5,659.9z"/>
	</g>
	<g id="XMLID_520_">
		
			<rect id="XMLID_524_" x="705.1" y="611.1" transform="matrix(0.1041 -0.9946 0.9946 0.1041 53.7111 1291.3058)" style="fill:#FF508F;" width="77" height="9.4"/>
		
			<rect id="XMLID_523_" x="707.5" y="613.8" transform="matrix(0.1041 -0.9946 0.9946 0.1041 55.5116 1293.9072)" style="fill:#B7B7B7;" width="77" height="4.7"/>
		<polygon id="XMLID_522_" style="fill:#F9D6B7;" points="742.9,577.1 748.8,565.7 752.3,578 751.9,581.1 750.5,577.9 747.3,580.7 
			745,577.3 742.6,580.2 		"/>
		<path id="XMLID_521_" style="fill:#231F20;" d="M748.8,565.7l1.5,5.2c-0.7-0.1-1.3-0.1-2-0.2s-1.3-0.2-2-0.2L748.8,565.7z"/>
	</g>
	<g id="XMLID_343_">
		<path id="XMLID_519_" style="fill:#CECECF;" d="M432.6,675.3H219.7l0,0c0,4.7,5.3,8.8,12.5,9.6l11.2,1.3c11.9,1.3,24,2,36,2h153.1
			h153.1c12.1,0,24.1-0.7,36-2l11.2-1.3c7.2-0.8,12.5-4.8,12.5-9.6l0,0H432.6z"/>
		<path id="XMLID_518_" style="fill:#FFFFFF;" d="M244.4,657.2V450.4c0-11,8.9-19.9,19.9-19.9h336.5c11,0,19.9,8.9,19.9,19.9v206.8
			H244.4z"/>
		<path id="XMLID_428_" style="fill:#231F20;" d="M603.8,432.9H261.3c-8,0-14.5,6.5-14.5,14.5v207.4h371.4V447.4
			C618.3,439.4,611.8,432.9,603.8,432.9z"/>
		<polygon id="XMLID_426_" style="fill:#CECECF;" points="618.3,654.8 246.8,654.8 219.7,675.3 645.4,675.3 		"/>
		<rect id="XMLID_421_" x="261.3" y="453.3" style="fill:#EBEBF5;" width="342.5" height="185.2"/>
		<defs>
			<filter id="Adobe_OpacityMaskFilter" filterUnits="userSpaceOnUse" x="226.9" y="453.3" width="406.7" height="191.6">
				<feColorMatrix  type="matrix" values="1 0 0 0 0  0 1 0 0 0  0 0 1 0 0  0 0 0 1 0"/>
			</filter>
		</defs>
		<mask maskUnits="userSpaceOnUse" x="226.9" y="453.3" width="406.7" height="191.6" id="XMLID_2_">
			<g id="XMLID_61_" style="filter:url(#Adobe_OpacityMaskFilter);">
				
					<linearGradient id="XMLID_3_" gradientUnits="userSpaceOnUse" x1="432.55" y1="351.9073" x2="432.55" y2="172.1904" gradientTransform="matrix(1 0 0 -1 0 810)">
					<stop  offset="0" style="stop-color:#FFFFFF"/>
					<stop  offset="1" style="stop-color:#000000"/>
				</linearGradient>
				<rect id="XMLID_62_" x="261.3" y="453.3" style="fill:url(#XMLID_3_);" width="342.5" height="185.2"/>
			</g>
		</mask>
		<g id="XMLID_398_" style="mask:url(#XMLID_2_);">
			<g>
				<defs>
					<rect id="SVGID_1_" x="261.3" y="453.3" width="342.5" height="185.2"/>
				</defs>
				<clipPath id="SVGID_2_">
					<use xlink:href="#SVGID_1_"  style="overflow:visible;"/>
				</clipPath>
				<g id="XMLID_414_" style="opacity:0.5;clip-path:url(#SVGID_2_);">
					<polygon id="XMLID_420_" style="fill:#8381CE;" points="484.7,511 432.6,612 484.7,612 536.9,612 					"/>
					<polygon id="XMLID_419_" style="fill:#DBDBDB;" points="536.9,612 484.7,511 495.7,566.7 484.7,569.8 484.7,612 					"/>
					<polygon id="XMLID_418_" style="fill:#47439E;" points="530.7,489 466.8,612.7 530.7,612.7 594.6,612.7 					"/>
					<polygon id="XMLID_417_" style="fill:#DBDBDB;" points="594.6,612.7 530.7,489 544.1,557.2 530.7,561 530.7,612.7 					"/>
					<polygon id="XMLID_416_" style="fill:#CCCBE7;" points="589.6,527.7 545.7,612.7 589.6,612.7 633.6,612.7 					"/>
					<polygon id="XMLID_415_" style="fill:#DBDBDB;" points="633.6,612.7 589.6,527.7 598.9,574.5 589.6,577.1 589.6,612.7 					"/>
				</g>
			</g>
			<g>
				<defs>
					<rect id="SVGID_3_" x="261.3" y="453.3" width="342.5" height="185.2"/>
				</defs>
				<clipPath id="SVGID_4_">
					<use xlink:href="#SVGID_3_"  style="overflow:visible;"/>
				</clipPath>
				<g id="XMLID_407_" style="opacity:0.5;clip-path:url(#SVGID_4_);">
					<polygon id="XMLID_413_" style="fill:#8381CE;" points="282.6,515.2 230.5,616.2 282.6,616.2 334.8,616.2 					"/>
					<polygon id="XMLID_412_" style="fill:#DBDBDB;" points="334.8,616.2 282.6,515.2 293.6,570.8 282.6,573.9 282.6,616.2 					"/>
					<g>
						<polygon id="XMLID_411_" style="fill:#47439E;" points="368.1,496.5 304.2,592.1 368.1,592.1 432,592.1 						"/>
						<polygon id="XMLID_410_" style="fill:#DBDBDB;" points="432,592.1 368.1,496.5 381.5,549.2 368.1,552.1 368.1,592.1 						"/>
					</g>
					<polygon id="XMLID_409_" style="fill:#CCCBE7;" points="408,527.7 364.1,612.7 408,612.7 451.9,612.7 					"/>
					<polygon id="XMLID_408_" style="fill:#DBDBDB;" points="451.9,612.7 408,527.7 417.2,574.5 408,577.1 408,612.7 					"/>
				</g>
			</g>
			<g>
				<defs>
					<rect id="SVGID_5_" x="261.3" y="453.3" width="342.5" height="185.2"/>
				</defs>
				<clipPath id="SVGID_6_">
					<use xlink:href="#SVGID_5_"  style="overflow:visible;"/>
				</clipPath>
				<g id="XMLID_400_" style="clip-path:url(#SVGID_6_);">
					<polygon id="XMLID_406_" style="fill:#8381CE;" points="324.1,514 226.9,644.9 324.1,644.9 421.4,644.9 					"/>
					<polygon id="XMLID_405_" style="fill:#DBDBDB;" points="421.4,644.9 324.1,514 344.6,586.2 324.1,590.2 324.1,644.9 					"/>
					<polygon id="XMLID_404_" style="fill:#47439E;" points="437.3,484.5 318.1,644.9 437.3,644.9 556.4,644.9 					"/>
					<polygon id="XMLID_403_" style="fill:#DBDBDB;" points="556.4,644.9 437.3,484.5 462.4,572.9 437.3,577.9 437.3,644.9 					"/>
					<polygon id="XMLID_402_" style="fill:#CCCBE7;" points="547.2,534.7 465.3,644.9 547.2,644.9 629.1,644.9 					"/>
					<polygon id="XMLID_401_" style="fill:#DBDBDB;" points="629.1,644.9 547.2,534.7 564.4,595.4 547.2,598.8 547.2,644.9 					"/>
				</g>
			</g>
		</g>
		<path id="XMLID_395_" style="fill:#B7B7B7;" d="M432.6,675.3H219.7l0,0c0,4.7,5.3,8.8,12.5,9.6l11.2,1.3c11.9,1.3,24,2,36,2h153.1
			h153.1c12.1,0,24.1-0.7,36-2l11.2-1.3c7.2-0.8,12.5-4.8,12.5-9.6l0,0H432.6z"/>
		<path id="XMLID_394_" style="fill:#FFFFFF;" d="M222.6,681.1h419.8c1.8-1.6,2.9-3.6,2.9-5.7H432.6H219.7
			C219.7,677.5,220.8,679.5,222.6,681.1z"/>
		<g id="XMLID_344_">
			<polygon id="XMLID_393_" style="fill:#231F20;" points="339.1,664.5 353.6,664.5 356.4,658.4 342.5,658.4 			"/>
			<polygon id="XMLID_392_" style="fill:#231F20;" points="323.3,664.5 337.8,664.5 341.1,658.4 327.3,658.4 			"/>
			<polygon id="XMLID_391_" style="fill:#231F20;" points="417.6,658.4 403.6,658.4 402.4,664.5 417.1,664.5 			"/>
			<polygon id="XMLID_390_" style="fill:#231F20;" points="355,664.5 369.5,664.5 371.7,658.4 357.8,658.4 			"/>
			<polygon id="XMLID_389_" style="fill:#231F20;" points="370.8,664.5 385.4,664.5 387,658.4 373,658.4 			"/>
			<polygon id="XMLID_388_" style="fill:#231F20;" points="402.3,658.4 388.3,658.4 386.6,664.5 401.2,664.5 			"/>
			<polygon id="XMLID_387_" style="fill:#231F20;" points="291.7,664.5 306,664.5 310.5,658.4 296.8,658.4 			"/>
			<polygon id="XMLID_386_" style="fill:#231F20;" points="260.1,664.5 274.2,664.5 279.9,658.4 266.3,658.4 			"/>
			<polygon id="XMLID_385_" style="fill:#231F20;" points="307.5,664.5 321.9,664.5 325.8,658.4 312,658.4 			"/>
			<polygon id="XMLID_384_" style="fill:#231F20;" points="252.6,671.7 267.5,671.7 273.1,665.7 258.8,665.7 			"/>
			<polygon id="XMLID_383_" style="fill:#231F20;" points="418.3,664.5 432.9,664.5 432.9,658.4 418.8,658.4 			"/>
			<polygon id="XMLID_382_" style="fill:#231F20;" points="275.9,664.5 290.1,664.5 295.2,658.4 281.5,658.4 			"/>
			<polygon id="XMLID_381_" style="fill:#231F20;" points="497.3,664.5 511.9,664.5 509.1,658.4 495.1,658.4 			"/>
			<polygon id="XMLID_380_" style="fill:#231F20;" points="545,664.5 559.3,664.5 554.8,658.4 541,658.4 			"/>
			<polygon id="XMLID_379_" style="fill:#231F20;" points="560.8,664.5 575.2,664.5 570.1,658.4 556.3,658.4 			"/>
			<polygon id="XMLID_378_" style="fill:#231F20;" points="576.7,664.5 591,664.5 585.3,658.4 571.7,658.4 			"/>
			<polygon id="XMLID_377_" style="fill:#231F20;" points="529.1,664.5 543.5,664.5 539.6,658.4 525.7,658.4 			"/>
			<polygon id="XMLID_376_" style="fill:#231F20;" points="606.8,664.5 600.6,658.4 587,658.4 592.6,664.5 			"/>
			<polygon id="XMLID_375_" style="fill:#231F20;" points="449.8,664.5 464.4,664.5 463.3,658.4 449.2,658.4 			"/>
			<polygon id="XMLID_374_" style="fill:#231F20;" points="465.6,664.5 480.2,664.5 478.5,658.4 464.5,658.4 			"/>
			<polygon id="XMLID_373_" style="fill:#231F20;" points="434.1,664.5 448.6,664.5 448,658.4 434.1,658.4 			"/>
			<polygon id="XMLID_372_" style="fill:#231F20;" points="481.5,664.5 496.1,664.5 493.8,658.4 479.8,658.4 			"/>
			<polygon id="XMLID_371_" style="fill:#231F20;" points="513.2,664.5 527.7,664.5 524.3,658.4 510.4,658.4 			"/>
			<polygon id="XMLID_370_" style="fill:#231F20;" points="289.1,665.7 274.8,665.7 269.1,671.7 284,671.7 			"/>
			<polygon id="XMLID_369_" style="fill:#231F20;" points="592.1,665.7 577.7,665.7 582.8,671.7 597.7,671.7 			"/>
			<polygon id="XMLID_368_" style="fill:#231F20;" points="544.3,665.7 529.8,665.7 533.2,671.7 548.3,671.7 			"/>
			<polygon id="XMLID_367_" style="fill:#231F20;" points="560.2,665.7 545.8,665.7 549.7,671.7 564.8,671.7 			"/>
			<polygon id="XMLID_366_" style="fill:#231F20;" points="528.4,665.7 513.8,665.7 516.6,671.7 531.8,671.7 			"/>
			<polygon id="XMLID_365_" style="fill:#231F20;" points="512.5,665.7 497.8,665.7 500.1,671.7 515.3,671.7 			"/>
			<polygon id="XMLID_364_" style="fill:#231F20;" points="576.2,665.7 561.7,665.7 566.3,671.7 581.2,671.7 			"/>
			<polygon id="XMLID_363_" style="fill:#231F20;" points="626.5,665.6 626.5,665.7 609.7,665.7 615.9,671.7 634.6,671.7 			"/>
			<polygon id="XMLID_362_" style="fill:#231F20;" points="258.3,664.5 264.5,658.4 248,658.4 240.1,664.5 			"/>
			<polygon id="XMLID_361_" style="fill:#231F20;" points="257.1,665.7 238.5,665.7 230.5,671.7 250.9,671.7 			"/>
			<polygon id="XMLID_360_" style="fill:#231F20;" points="496.5,665.7 481.8,665.7 483.5,671.7 498.8,671.7 			"/>
			<polygon id="XMLID_359_" style="fill:#231F20;" points="608,665.7 593.7,665.7 599.4,671.7 614.2,671.7 			"/>
			<polygon id="XMLID_358_" style="fill:#231F20;" points="608.5,664.5 625,664.5 617.1,658.4 602.3,658.4 			"/>
			<polygon id="XMLID_357_" style="fill:#231F20;" points="305.1,665.7 290.7,665.7 285.6,671.7 300.6,671.7 			"/>
			<polygon id="XMLID_356_" style="fill:#231F20;" points="369,665.7 354.4,665.7 351.6,671.7 366.8,671.7 			"/>
			<polygon id="XMLID_355_" style="fill:#231F20;" points="353.1,665.7 338.5,665.7 335.1,671.7 350.2,671.7 			"/>
			<polygon id="XMLID_354_" style="fill:#231F20;" points="385,665.7 370.3,665.7 368.1,671.7 383.3,671.7 			"/>
			<polygon id="XMLID_353_" style="fill:#231F20;" points="337.1,665.7 322.5,665.7 318.6,671.7 333.7,671.7 			"/>
			<polygon id="XMLID_352_" style="fill:#231F20;" points="321.1,665.7 306.6,665.7 302.1,671.7 317.1,671.7 			"/>
			<polygon id="XMLID_350_" style="fill:#231F20;" points="401,665.7 386.3,665.7 384.6,671.7 399.9,671.7 			"/>
			<polygon id="XMLID_349_" style="fill:#231F20;" points="464.6,665.7 449.9,665.7 450.4,671.7 465.7,671.7 			"/>
			<polygon id="XMLID_348_" style="fill:#231F20;" points="448.7,665.7 434.1,665.7 434.1,671.7 449.2,671.7 			"/>
			<polygon id="XMLID_347_" style="fill:#231F20;" points="417,665.7 402.2,665.7 401.1,671.7 416.4,671.7 			"/>
			<polygon id="XMLID_346_" style="fill:#231F20;" points="480.6,665.7 465.8,665.7 467,671.7 482.3,671.7 			"/>
			<polygon id="XMLID_345_" style="fill:#231F20;" points="432.9,665.7 418.2,665.7 417.6,671.7 432.9,671.7 			"/>
		</g>
	</g>
	<rect id="XMLID_104_" y="705.3" style="fill:#BABABE;" width="912.7" height="25.5"/>
	<rect id="XMLID_103_" x="96.7" y="730.8" style="fill:#BABABE;" width="722.6" height="78.6"/>
	<rect id="XMLID_102_" x="96.2" y="730.8" style="fill:#B7B7B7;" width="723" height="14.3"/>
	<path id="XMLID_101_" style="fill:#E8E8E8;" d="M754.2,631.7h-57.7V678c0,5.6,4.5,10.1,10.1,10.1H744c5.6,0,10.1-4.5,10.1-10.1
		v-46.3H754.2z"/>
	<path id="XMLID_100_" style="fill:#E8E8E8;" d="M754.4,623.7h-58.2c-1.4,0-2.6,1.2-2.6,2.6v2.8c0,1.4,1.2,2.6,2.6,2.6h58.2
		c1.4,0,2.6-1.2,2.6-2.6v-2.8C757,624.8,755.9,623.7,754.4,623.7z"/>
	<rect id="XMLID_99_" x="696.5" y="631.7" style="fill:#B7B7B7;" width="57.7" height="3.3"/>
	<g>
		<g>
			<g>
				<path style="fill:#A5D2E3;" d="M774.3,316L774.3,316c-3.7-3.7-3.7-9.7,0-13.4l-4,4c-3.7,3.7-9.7,3.7-13.4,0l0,0
					c-3.7-3.7-3.7-9.7,0-13.4l-4,4c-3.7,3.7-9.7,3.7-13.4,0s-3.7-9.7,0-13.4l-33,33c-3.7,3.7-9.7,3.7-13.4,0l0,0
					c-3.7-3.7-3.7-9.7,0-13.4l52.3-52.3c-4.9,4.9-12.9,4.9-17.9,0c-1.6-1.6-1.6-4.3,0-5.9l28-28c8-8,19.8-9.9,29.6-5.8l1.4-1.4
					l106.1-106.1l53.6,53.6L840.1,263.6L787.7,316C784,319.7,778,319.7,774.3,316z"/>
			</g>
			<path style="fill:#88B2BF;" d="M734.6,254.7l34.1-26.8L750,246.5l-4.7,4.7C742.4,254.1,738.4,255.3,734.6,254.7z"/>
		</g>
		<path style="fill:#F2F2F2;" d="M979,87.8c-0.5,0-1.1,0-1.6,0c0.6-3.9,0.9-7.9,0.9-11.9c0-41.9-34-75.9-75.9-75.9
			c-26.7,0-50.1,13.8-63.7,34.6c-7.1-3.4-15-5.2-23.3-5.2c-30.1,0-54.6,24.4-54.6,54.6c0,1.3,0.1,2.6,0.2,4c-0.5,0-0.9,0-1.4,0
			C735,88,715,108,715,132.6s20,44.6,44.6,44.6H979c24.6,0,44.6-20,44.6-44.6C1023.6,107.8,1003.6,87.8,979,87.8z"/>
		<polygon style="fill:#88B2BF;" points="819.4,177.1 809.2,187.2 916.5,187.2 926.6,177.1 		"/>
	</g>
	<path style="fill:#B3B3B3;" d="M469.2,502.6c0,0,0.5,0.1,1.3,0.4s2,0.7,3.5,1.3c3,1.2,7.1,3.1,11.9,5.6c4.8,2.5,10.1,5.7,15.7,9.4
		c1.4,0.9,2.8,1.9,4.2,2.8c1.4,1,2.8,2,4.2,3c2.8,2,5.6,4.2,8.4,6.4c2.7,2.2,5.5,4.5,8.1,6.8c1.3,1.1,2.6,2.3,3.8,3.5
		c1.3,1.2,2.5,2.3,3.7,3.5c4.8,4.6,9,9.2,12.5,13.3s6.2,7.7,8,10.4c0.9,1.3,1.6,2.4,2.1,3.1c0.5,0.7,0.7,1.2,0.7,1.2
		s-0.5-0.1-1.3-0.4c-0.8-0.3-2-0.7-3.5-1.3c-3-1.2-7.1-3.1-11.9-5.6c-4.8-2.5-10.1-5.7-15.7-9.4c-1.4-0.9-2.8-1.9-4.2-2.8
		c-1.4-1-2.8-2-4.2-3c-2.8-2.1-5.6-4.2-8.3-6.4c-2.7-2.2-5.4-4.5-8-6.8c-1.3-1.1-2.6-2.3-3.8-3.5c-1.3-1.2-2.5-2.3-3.7-3.5
		c-4.8-4.6-9-9.2-12.5-13.3s-6.2-7.7-8.1-10.4c-0.9-1.3-1.6-2.4-2.1-3.1C469.4,503,469.2,502.6,469.2,502.6z"/>
	<g>
		<path style="fill:#C3E1ED;" d="M681.7,408.3c-3.7-3.7-9.7-3.7-13.4,0l4-4c3.7-3.7,3.7-9.7,0-13.4c-3.7-3.7-9.7-3.7-13.4,0l4-4
			c3.7-3.7,3.7-9.7,0-13.4c-3.7-3.7-9.7-3.7-13.4,0l32.9-33.1c3.7-3.7,3.7-9.7,0-13.4c-3.7-3.7-9.7-3.7-13.4,0l-52.2,52.4
			c4.9-4.9,4.9-12.9,0-17.9c-1.6-1.6-4.3-1.6-5.9,0L583,389.6c-8,8-9.9,19.8-5.7,29.6L479.9,517c0.1,0.1,0.2,0.3,0.4,0.4
			c3.5,4.1,7.8,8.6,12.6,13.2c1.2,1.2,2.4,2.3,3.7,3.5c1.3,1.2,2.5,2.3,3.9,3.4c2.6,2.3,5.3,4.6,8.1,6.8c2.8,2.2,5.6,4.3,8.4,6.4
			c1.4,1,2.8,2,4.2,3s2.8,1.9,4.2,2.8c4.9,3.2,9.6,6.1,14,8.4l142.7-143.3C685.4,418,685.4,412,681.7,408.3L681.7,408.3z"/>
		<path style="fill:#88B2BF;" d="M620.3,368.6l-26.8,34.1l18.6-18.7l4.6-4.7C619.7,376.5,620.9,372.5,620.3,368.6z"/>
	</g>
	<g>
		<path style="fill:#FFFFFF;" d="M739.5,321.1L739.5,321.1c-1.2,0-2,0.8-2,1.9c-0.9,24.6-19.7,44.9-44.1,47.7l6.5-7.4
			c0.5-0.6,0.5-1.5-0.1-2l0,0c-0.6-0.5-1.5-0.5-2,0.1l-9.2,10.4c-0.5,0.6-0.4,1.5,0.2,2l11.1,8.4c0.6,0.5,1.5,0.3,2-0.3l0,0
			c0.5-0.6,0.3-1.5-0.3-2l-7.3-5.5c26.1-3.2,46.2-25,47.2-51.5C741.5,322,740.6,321.1,739.5,321.1z"/>
		<path style="fill:#FFFFFF;" d="M673.6,262.1l7.3,5.5c-26.1,3.2-46.2,25-47.2,51.5c0,1.1,0.8,2,1.9,2h0.1c1.1,0,1.9-0.8,1.9-1.9
			c0.9-24.6,19.7-44.9,44.1-47.7l-6.5,7.4c-0.5,0.6-0.5,1.5,0.1,2l0,0c0.6,0.5,1.5,0.5,2-0.1l9.2-10.4c0.5-0.6,0.4-1.5-0.2-2
			l-11.1-8.4c-0.6-0.5-1.5-0.3-2,0.3l0,0C672.9,260.7,673,261.6,673.6,262.1z"/>
	</g>
	<g>
		<path style="fill:#C3E1ED;" d="M446.5,84c-0.4,0-0.8,0.4-0.8,0.8v7.3c0,0.4,0.4,0.8,0.8,0.8s0.8-0.4,0.8-0.8v-7.3
			C447.3,84.3,447,84,446.5,84z"/>
		<path style="fill:#C3E1ED;" d="M435.5,88.5c-0.3-0.3-0.8-0.3-1.1,0c-0.3,0.3-0.3,0.8,0,1.1l5.2,5.2c0.2,0.2,0.4,0.2,0.6,0.2
			s0.4-0.1,0.6-0.2c0.3-0.3,0.3-0.8,0-1.1L435.5,88.5z"/>
		<path style="fill:#C3E1ED;" d="M429.8,101.2h7.3c0.4,0,0.8-0.4,0.8-0.8s-0.4-0.8-0.8-0.8h-7.3c-0.4,0-0.8,0.4-0.8,0.8
			C428.9,100.8,429.3,101.2,429.8,101.2z"/>
		<path style="fill:#C3E1ED;" d="M438.7,106.3l-5.2,5.2c-0.3,0.3-0.3,0.8,0,1.1c0.2,0.2,0.4,0.2,0.6,0.2s0.4-0.1,0.6-0.2l5.2-5.2
			c0.3-0.3,0.3-0.8,0-1.1C439.5,106,439,106,438.7,106.3z"/>
		<path style="fill:#C3E1ED;" d="M445.4,118c0.4,0,0.8-0.4,0.8-0.8v-7.3c0-0.4-0.4-0.8-0.8-0.8s-0.8,0.4-0.8,0.8v7.3
			C444.6,117.6,444.9,118,445.4,118z"/>
		<path style="fill:#C3E1ED;" d="M452.4,107.1c-0.3-0.3-0.8-0.3-1.1,0c-0.3,0.3-0.3,0.8,0,1.1l5.2,5.2c0.2,0.2,0.4,0.2,0.6,0.2
			s0.4-0.1,0.6-0.2c0.3-0.3,0.3-0.8,0-1.1L452.4,107.1z"/>
		<path style="fill:#C3E1ED;" d="M462.1,100.8h-7.3c-0.4,0-0.8,0.4-0.8,0.8s0.4,0.8,0.8,0.8h7.3c0.4,0,0.8-0.4,0.8-0.8
			C463,101.1,462.6,100.8,462.1,100.8z"/>
		<path style="fill:#C3E1ED;" d="M452.6,95.9c0.2,0,0.4-0.1,0.6-0.2l5.2-5.2c0.3-0.3,0.3-0.8,0-1.1c-0.3-0.3-0.8-0.3-1.1,0l-5.2,5.2
			c-0.3,0.3-0.3,0.8,0,1.1C452.2,95.8,452.4,95.9,452.6,95.9z"/>
	</g>
	<g>
		<path style="fill:#C3E1ED;" d="M809.8,449.3c0.4,0,0.8-0.4,0.8-0.8v-7.3c0-0.4-0.4-0.8-0.8-0.8c-0.4,0-0.8,0.4-0.8,0.8v7.3
			C809,448.9,809.4,449.3,809.8,449.3z"/>
		<path style="fill:#C3E1ED;" d="M802.8,451.3c0.2,0.2,0.4,0.2,0.6,0.2c0.2,0,0.4-0.1,0.6-0.2c0.3-0.3,0.3-0.8,0-1.1l-5.2-5.2
			c-0.3-0.3-0.8-0.3-1.1,0s-0.3,0.8,0,1.1L802.8,451.3z"/>
		<path style="fill:#C3E1ED;" d="M793,457.6h7.3c0.4,0,0.8-0.4,0.8-0.8s-0.4-0.8-0.8-0.8H793c-0.4,0-0.8,0.4-0.8,0.8
			S792.6,457.6,793,457.6z"/>
		<path style="fill:#C3E1ED;" d="M802,462.7l-5.2,5.2c-0.3,0.3-0.3,0.8,0,1.1c0.2,0.2,0.4,0.2,0.6,0.2c0.2,0,0.4-0.1,0.6-0.2
			l5.2-5.2c0.3-0.3,0.3-0.8,0-1.1C802.8,462.3,802.3,462.3,802,462.7z"/>
		<path style="fill:#C3E1ED;" d="M808.7,474.4c0.4,0,0.8-0.4,0.8-0.8v-7.3c0-0.4-0.4-0.8-0.8-0.8c-0.4,0-0.8,0.4-0.8,0.8v7.3
			C807.9,474,808.2,474.4,808.7,474.4z"/>
		<path style="fill:#C3E1ED;" d="M819.7,469.8c0.2,0.2,0.4,0.2,0.6,0.2c0.2,0,0.4-0.1,0.6-0.2c0.3-0.3,0.3-0.8,0-1.1l-5.2-5.2
			c-0.3-0.3-0.8-0.3-1.1,0s-0.3,0.8,0,1.1L819.7,469.8z"/>
		<path style="fill:#C3E1ED;" d="M817.3,457.9c0,0.4,0.4,0.8,0.8,0.8h7.3c0.4,0,0.8-0.4,0.8-0.8s-0.4-0.8-0.8-0.8h-7.3
			C817.7,457.1,817.3,457.5,817.3,457.9z"/>
		<path style="fill:#C3E1ED;" d="M815.9,452.3c0.2,0,0.4-0.1,0.6-0.2l5.2-5.2c0.3-0.3,0.3-0.8,0-1.1c-0.3-0.3-0.8-0.3-1.1,0
			l-5.2,5.2c-0.3,0.3-0.3,0.8,0,1.1C815.5,452.2,815.7,452.3,815.9,452.3z"/>
	</g>
	<path style="fill:#C3E1ED;" d="M838.5,563.5h-7.8v-7.8c0-0.4-0.4-0.8-0.8-0.8s-0.8,0.4-0.8,0.8v7.8h-7.8c-0.4,0-0.8,0.4-0.8,0.8
		c0,0.4,0.4,0.8,0.8,0.8h7.8v7.8c0,0.4,0.4,0.8,0.8,0.8s0.8-0.4,0.8-0.8v-7.8h7.8c0.4,0,0.8-0.4,0.8-0.8S839,563.5,838.5,563.5z"/>
	<path style="fill:#C3E1ED;" d="M596.2,253.5h7.8v7.8c0,0.4,0.4,0.8,0.8,0.8c0.4,0,0.8-0.4,0.8-0.8v-7.8h7.8c0.4,0,0.8-0.4,0.8-0.8
		s-0.4-0.8-0.8-0.8h-7.8V244c0-0.4-0.4-0.8-0.8-0.8c-0.4,0-0.8,0.4-0.8,0.8v7.8h-7.8c-0.4,0-0.8,0.4-0.8,0.8
		S595.7,253.5,596.2,253.5z"/>
	<path style="fill:#C3E1ED;" d="M503.3,377.4h-7.8v-7.8c0-0.4-0.4-0.8-0.8-0.8s-0.8,0.4-0.8,0.8v7.8H486c-0.4,0-0.8,0.4-0.8,0.8
		s0.4,0.8,0.8,0.8h7.8v7.8c0,0.4,0.4,0.8,0.8,0.8s0.8-0.4,0.8-0.8V379h7.8c0.4,0,0.8-0.4,0.8-0.8
		C504.1,377.7,503.8,377.4,503.3,377.4z"/>
	<path style="fill:#C3E1ED;" d="M896.4,279.1c-3.3,0-6,2.7-6,6s2.7,6,6,6s6-2.7,6-6C902.4,281.8,899.7,279.1,896.4,279.1z
		 M896.4,289.5c-2.4,0-4.4-2-4.4-4.4s2-4.4,4.4-4.4s4.4,2,4.4,4.4C900.8,287.6,898.8,289.5,896.4,289.5z"/>
	<path style="fill:#C3E1ED;" d="M301.1,290.7c-3.3,0-6,2.7-6,6s2.7,6,6,6s6-2.7,6-6C307.1,293.4,304.4,290.7,301.1,290.7z
		 M301.1,301.1c-2.4,0-4.4-2-4.4-4.4s2-4.4,4.4-4.4s4.4,2,4.4,4.4S303.5,301.1,301.1,301.1z"/>
	<g>
		<path style="fill:#C3E1ED;" d="M975.3,399.5c-0.7,0-1.2,0.5-1.2,1.2s0.5,1.2,1.2,1.2s1.2-0.5,1.2-1.2
			C976.5,400.1,976,399.5,975.3,399.5z"/>
		<path style="fill:#C3E1ED;" d="M982.6,398.9c0.5-0.5,0.5-1.2,0-1.7s-1.2-0.5-1.7,0s-0.5,1.2,0,1.7c0.2,0.2,0.5,0.4,0.9,0.4
			C982.1,399.3,982.4,399.2,982.6,398.9z"/>
		<path style="fill:#C3E1ED;" d="M981.7,386.4c0.3,0,0.6-0.1,0.9-0.4c0.5-0.5,0.5-1.2,0-1.7s-1.2-0.5-1.7,0s-0.5,1.2,0,1.7
			C981.1,386.2,981.4,386.4,981.7,386.4z"/>
		<path style="fill:#C3E1ED;" d="M968,397.2c-0.5,0.5-0.5,1.2,0,1.7l0,0c0.2,0.2,0.5,0.4,0.8,0.4s0.6-0.1,0.9-0.4
			c0.5-0.5,0.5-1.2,0-1.7C969.3,396.8,968.5,396.8,968,397.2z"/>
		<path style="fill:#C3E1ED;" d="M968.8,386.4c0.3,0,0.6-0.1,0.9-0.4c0.5-0.5,0.5-1.2,0-1.7s-1.2-0.5-1.7,0s-0.5,1.2,0,1.7
			C968.2,386.3,968.5,386.4,968.8,386.4z"/>
		<path style="fill:#C3E1ED;" d="M984.4,392.8c0.7,0,1.2-0.5,1.2-1.2l0,0l0,0c0-0.7-0.5-1.2-1.2-1.2s-1.2,0.5-1.2,1.2l0,0
			C983.2,392.3,983.8,392.8,984.4,392.8z"/>
		<path style="fill:#C3E1ED;" d="M975.3,383.7c0.7,0,1.2-0.5,1.2-1.2s-0.5-1.2-1.2-1.2s-1.2,0.5-1.2,1.2S974.6,383.7,975.3,383.7z"
			/>
		<path style="fill:#C3E1ED;" d="M966.2,392.8c0.7,0,1.2-0.5,1.2-1.2s-0.5-1.2-1.2-1.2s-1.2,0.5-1.2,1.2S965.5,392.8,966.2,392.8z"
			/>
	</g>
	<g>
		<path style="fill:#C3E1ED;" d="M477.2,270.2c-0.5,0.5-0.5,1.2,0,1.7c0.2,0.2,0.5,0.4,0.9,0.4c0.3,0,0.6-0.1,0.9-0.4
			c0.5-0.5,0.5-1.2,0-1.7C478.4,269.7,477.7,269.7,477.2,270.2z"/>
		<path style="fill:#C3E1ED;" d="M475.4,278.7c0.7,0,1.2-0.5,1.2-1.2s-0.5-1.2-1.2-1.2s-1.2,0.5-1.2,1.2
			C474.2,278.1,474.7,278.7,475.4,278.7z"/>
		<path style="fill:#C3E1ED;" d="M490.1,283c-0.5,0.5-0.5,1.2,0,1.7c0.2,0.2,0.5,0.4,0.9,0.4c0.3,0,0.6-0.1,0.9-0.4
			c0.5-0.5,0.5-1.2,0-1.7C491.3,282.6,490.6,282.6,490.1,283z"/>
		<path style="fill:#C3E1ED;" d="M490.9,272.2c0.3,0,0.6-0.1,0.9-0.4c0.5-0.5,0.5-1.2,0-1.7s-1.2-0.5-1.7,0s-0.5,1.2,0,1.7
			C490.3,272.1,490.6,272.2,490.9,272.2z"/>
		<path style="fill:#C3E1ED;" d="M493.6,276.2c-0.7,0-1.2,0.5-1.2,1.2l0,0c0,0.7,0.5,1.2,1.2,1.2s1.2-0.5,1.2-1.2l0,0l0,0
			C494.8,276.7,494.3,276.2,493.6,276.2z"/>
		<path style="fill:#C3E1ED;" d="M484.5,269.5c0.7,0,1.2-0.5,1.2-1.2s-0.5-1.2-1.2-1.2s-1.2,0.5-1.2,1.2S483.8,269.5,484.5,269.5z"
			/>
		<path style="fill:#C3E1ED;" d="M484.5,285.4c-0.7,0-1.2,0.5-1.2,1.2s0.5,1.2,1.2,1.2s1.2-0.5,1.2-1.2S485.2,285.4,484.5,285.4z"/>
		<path style="fill:#C3E1ED;" d="M477.2,283.1c-0.5,0.5-0.5,1.2,0,1.7l0,0c0.2,0.2,0.5,0.4,0.8,0.4s0.6-0.1,0.9-0.4
			c0.5-0.5,0.5-1.2,0-1.7C478.5,282.6,477.7,282.6,477.2,283.1z"/>
	</g>
	<g>
		<path style="fill:#C3E1ED;" d="M708,502.6c0.3,0,0.6-0.1,0.9-0.4c0.5-0.5,0.5-1.2,0-1.7s-1.2-0.5-1.7,0s-0.5,1.2,0,1.7
			C707.4,502.5,707.7,502.6,708,502.6z"/>
		<path style="fill:#C3E1ED;" d="M710.7,506.6c-0.7,0-1.2,0.5-1.2,1.2l0,0c0,0.7,0.5,1.2,1.2,1.2s1.2-0.5,1.2-1.2l0,0l0,0
			C711.9,507.2,711.4,506.6,710.7,506.6z"/>
		<path style="fill:#C3E1ED;" d="M707.2,513.5c-0.5,0.5-0.5,1.2,0,1.7c0.2,0.2,0.5,0.4,0.9,0.4c0.3,0,0.6-0.1,0.9-0.4
			c0.5-0.5,0.5-1.2,0-1.7C708.5,513,707.7,513,707.2,513.5z"/>
		<path style="fill:#C3E1ED;" d="M701.6,500c0.7,0,1.2-0.5,1.2-1.2s-0.5-1.2-1.2-1.2s-1.2,0.5-1.2,1.2
			C700.4,499.4,700.9,500,701.6,500z"/>
		<path style="fill:#C3E1ED;" d="M701.6,515.8c-0.7,0-1.2,0.5-1.2,1.2s0.5,1.2,1.2,1.2s1.2-0.5,1.2-1.2S702.3,515.8,701.6,515.8z"/>
		<path style="fill:#C3E1ED;" d="M694.3,500.6c-0.5,0.5-0.5,1.2,0,1.7c0.2,0.2,0.5,0.4,0.9,0.4c0.3,0,0.6-0.1,0.9-0.4
			c0.5-0.5,0.5-1.2,0-1.7C695.5,500.1,694.8,500.1,694.3,500.6z"/>
		<path style="fill:#C3E1ED;" d="M693.7,507.9c0-0.7-0.5-1.2-1.2-1.2s-1.2,0.5-1.2,1.2s0.5,1.2,1.2,1.2S693.7,508.6,693.7,507.9z"/>
		<path style="fill:#C3E1ED;" d="M694.3,513.5c-0.5,0.5-0.5,1.2,0,1.7l0,0c0.2,0.2,0.5,0.4,0.8,0.4s0.6-0.1,0.9-0.4
			c0.5-0.5,0.5-1.2,0-1.7C695.6,513,694.8,513,694.3,513.5z"/>
	</g>
</g>
</svg>
